REM DIRINDEX 1\2\4,1\2\5,1\2\6,1\3\7,1\3\8,1\3\9,1\3\10
REM DIRNAME folder01,folder02,folder03,folder04,folder05,folder06,folder07,folder08,folder09,folder10
TITLE ""
FILE "a_183.mp3" MP3
  TRACK 01 AUDIO
    TITLE "0:"
    INDEX 01 00:00:00
  TRACK 02 AUDIO
    TITLE "4:cjc057_03833"
    INDEX 01 00:00:13
  TRACK 03 AUDIO
    TITLE "0:"
    INDEX 01 00:01:38
  TRACK 04 AUDIO
    TITLE "5:cjc057_03834"
    INDEX 01 00:01:71
  TRACK 05 AUDIO
    TITLE "0:"
    INDEX 01 00:03:31
  TRACK 06 AUDIO
    TITLE "4:cjc057_03835"
    INDEX 01 00:04:38
  TRACK 07 AUDIO
    TITLE "0:"
    INDEX 01 00:05:52
  TRACK 08 AUDIO
    TITLE "5:cjc057_03836"
    INDEX 01 00:06:12
  TRACK 09 AUDIO
    TITLE "0:"
    INDEX 01 00:10:19
  TRACK 10 AUDIO
    TITLE "4:cjc057_03837"
    INDEX 01 00:11:27
  TRACK 11 AUDIO
    TITLE "0:"
    INDEX 01 00:12:48
  TRACK 12 AUDIO
    TITLE "5:cjc057_03838"
    INDEX 01 00:13:04
  TRACK 13 AUDIO
    TITLE "0:"
    INDEX 01 00:17:49
  TRACK 14 AUDIO
    TITLE "4:cjc057_03839"
    INDEX 01 00:18:56
  TRACK 15 AUDIO
    TITLE "0:"
    INDEX 01 00:19:65
  TRACK 16 AUDIO
    TITLE "5:cjc057_03840"
    INDEX 01 00:20:24
  TRACK 17 AUDIO
    TITLE "0:"
    INDEX 01 00:23:67
  TRACK 18 AUDIO
    TITLE "4:cjc057_03841"
    INDEX 01 00:24:74
  TRACK 19 AUDIO
    TITLE "0:"
    INDEX 01 00:26:42
  TRACK 20 AUDIO
    TITLE "5:cjc057_03842"
    INDEX 01 00:27:00
  TRACK 21 AUDIO
    TITLE "0:"
    INDEX 01 00:31:12
  TRACK 22 AUDIO
    TITLE "4:cjc057_03843"
    INDEX 01 00:32:19
  TRACK 23 AUDIO
    TITLE "0:"
    INDEX 01 00:33:36
  TRACK 24 AUDIO
    TITLE "5:cjc057_03844"
    INDEX 01 00:33:69
  TRACK 25 AUDIO
    TITLE "0:"
    INDEX 01 00:36:25
  TRACK 26 AUDIO
    TITLE "4:cjc057_03845"
    INDEX 01 00:37:32
  TRACK 27 AUDIO
    TITLE "0:"
    INDEX 01 00:38:57
  TRACK 28 AUDIO
    TITLE "5:cjc057_03846"
    INDEX 01 00:39:15
  TRACK 29 AUDIO
    TITLE "0:"
    INDEX 01 00:40:15
  TRACK 30 AUDIO
    TITLE "4:cjc057_03847"
    INDEX 01 00:41:26
  TRACK 31 AUDIO
    TITLE "0:"
    INDEX 01 00:42:49
  TRACK 32 AUDIO
    TITLE "5:cjc057_03848"
    INDEX 01 00:43:05
  TRACK 33 AUDIO
    TITLE "0:"
    INDEX 01 00:44:36
  TRACK 34 AUDIO
    TITLE "4:cjc057_03849"
    INDEX 01 00:45:43
  TRACK 35 AUDIO
    TITLE "0:"
    INDEX 01 00:46:66
  TRACK 36 AUDIO
    TITLE "5:cjc057_03850"
    INDEX 01 00:47:25
  TRACK 37 AUDIO
    TITLE "0:"
    INDEX 01 00:49:72
  TRACK 38 AUDIO
    TITLE "4:cjc057_03851"
    INDEX 01 00:51:05
  TRACK 39 AUDIO
    TITLE "0:"
    INDEX 01 00:52:18
  TRACK 40 AUDIO
    TITLE "5:cjc057_03852"
    INDEX 01 00:52:51
  TRACK 41 AUDIO
    TITLE "0:"
    INDEX 01 00:55:16
  TRACK 42 AUDIO
    TITLE "4:cjc057_03853"
    INDEX 01 00:56:24
  TRACK 43 AUDIO
    TITLE "0:"
    INDEX 01 00:57:45
  TRACK 44 AUDIO
    TITLE "5:cjc057_03854"
    INDEX 01 00:58:03
  TRACK 45 AUDIO
    TITLE "0:"
    INDEX 01 00:59:20
  TRACK 46 AUDIO
    TITLE "4:cjc057_03855"
    INDEX 01 01:00:23
  TRACK 47 AUDIO
    TITLE "0:"
    INDEX 01 01:01:64
  TRACK 48 AUDIO
    TITLE "5:cjc057_03856"
    INDEX 01 01:02:22
  TRACK 49 AUDIO
    TITLE "0:"
    INDEX 01 01:05:26
  TRACK 50 AUDIO
    TITLE "4:cjc057_03857"
    INDEX 01 01:06:32
  TRACK 51 AUDIO
    TITLE "0:"
    INDEX 01 01:07:47
  TRACK 52 AUDIO
    TITLE "5:cjc057_03858"
    INDEX 01 01:08:05
  TRACK 53 AUDIO
    TITLE "0:"
    INDEX 01 01:11:51
  TRACK 54 AUDIO
    TITLE "4:cjc057_03859"
    INDEX 01 01:12:58
  TRACK 55 AUDIO
    TITLE "0:"
    INDEX 01 01:14:10
  TRACK 56 AUDIO
    TITLE "5:cjc057_03860"
    INDEX 01 01:14:45
  TRACK 57 AUDIO
    TITLE "0:"
    INDEX 01 01:16:30
  TRACK 58 AUDIO
    TITLE "4:cjc057_03861"
    INDEX 01 01:17:39
  TRACK 59 AUDIO
    TITLE "0:"
    INDEX 01 01:18:54
  TRACK 60 AUDIO
    TITLE "5:cjc057_03862"
    INDEX 01 01:19:13
  TRACK 61 AUDIO
    TITLE "0:"
    INDEX 01 01:21:70
  TRACK 62 AUDIO
    TITLE "4:cjc057_03863"
    INDEX 01 01:22:74
  TRACK 63 AUDIO
    TITLE "0:"
    INDEX 01 01:24:18
  TRACK 64 AUDIO
    TITLE "5:cjc057_03864"
    INDEX 01 01:24:51
  TRACK 65 AUDIO
    TITLE "0:"
    INDEX 01 01:27:26
  TRACK 66 AUDIO
    TITLE "4:cjc057_03865"
    INDEX 01 01:28:29
  TRACK 67 AUDIO
    TITLE "0:"
    INDEX 01 01:29:45
  TRACK 68 AUDIO
    TITLE "5:cjc057_03866"
    INDEX 01 01:30:01
  TRACK 69 AUDIO
    TITLE "0:"
    INDEX 01 01:31:61
  TRACK 70 AUDIO
    TITLE "4:cjc057_03867"
    INDEX 01 01:32:70
  TRACK 71 AUDIO
    TITLE "0:"
    INDEX 01 01:34:30
  TRACK 72 AUDIO
    TITLE "5:cjc057_03868"
    INDEX 01 01:34:63
  TRACK 73 AUDIO
    TITLE "0:"
    INDEX 01 01:37:68
  TRACK 74 AUDIO
    TITLE "4:cjc057_03869"
    INDEX 01 01:39:00
  TRACK 75 AUDIO
    TITLE "0:"
    INDEX 01 01:40:01
  TRACK 76 AUDIO
    TITLE "5:cjc057_03870"
    INDEX 01 01:40:35
  TRACK 77 AUDIO
    TITLE "0:"
    INDEX 01 01:43:03
  TRACK 78 AUDIO
    TITLE "4:cjc057_03871"
    INDEX 01 01:44:11
  TRACK 79 AUDIO
    TITLE "0:"
    INDEX 01 01:45:20
  TRACK 80 AUDIO
    TITLE "5:cjc057_03872"
    INDEX 01 01:45:53
  TRACK 81 AUDIO
    TITLE "0:"
    INDEX 01 01:48:20
  TRACK 82 AUDIO
    TITLE "4:cjc057_03873"
    INDEX 01 01:49:30
  TRACK 83 AUDIO
    TITLE "0:"
    INDEX 01 01:50:41
  TRACK 84 AUDIO
    TITLE "5:cjc057_03874"
    INDEX 01 01:51:01
  TRACK 85 AUDIO
    TITLE "0:"
    INDEX 01 01:53:35
  TRACK 86 AUDIO
    TITLE "4:cjc057_03875"
    INDEX 01 01:54:41
  TRACK 87 AUDIO
    TITLE "0:"
    INDEX 01 01:55:69
  TRACK 88 AUDIO
    TITLE "5:cjc057_03876"
    INDEX 01 01:56:28
  TRACK 89 AUDIO
    TITLE "0:"
    INDEX 01 02:00:24
  TRACK 90 AUDIO
    TITLE "4:cjc057_03877"
    INDEX 01 02:01:29
  TRACK 91 AUDIO
    TITLE "0:"
    INDEX 01 02:02:48
  TRACK 92 AUDIO
    TITLE "5:cjc057_03878"
    INDEX 01 02:03:06
  TRACK 93 AUDIO
    TITLE "0:"
    INDEX 01 02:06:14
